<svg width="380" height="296" viewBox="0 0 380 296" fill="none" xmlns="http://www.w3.org/2000/svg">
<path d="M184.966 76.9215L63.3333 177.1V285.222C63.3333 288.022 64.4454 290.707 66.425 292.686C68.4045 294.666 71.0894 295.778 73.8889 295.778L147.817 295.586C150.608 295.573 153.279 294.454 155.247 292.476C157.215 290.498 158.32 287.821 158.32 285.031V221.889C158.32 219.089 159.432 216.405 161.412 214.425C163.391 212.445 166.076 211.333 168.876 211.333H211.098C213.897 211.333 216.582 212.445 218.562 214.425C220.541 216.405 221.653 219.089 221.653 221.889V284.985C221.649 286.374 221.919 287.75 222.447 289.034C222.976 290.319 223.753 291.486 224.733 292.47C225.714 293.454 226.879 294.234 228.162 294.767C229.445 295.299 230.82 295.573 232.209 295.573L306.111 295.778C308.911 295.778 311.595 294.666 313.575 292.686C315.555 290.707 316.667 288.022 316.667 285.222V177.028L195.06 76.9215C193.63 75.7692 191.849 75.1407 190.013 75.1407C188.177 75.1407 186.396 75.7692 184.966 76.9215ZM377.097 145.011L321.944 99.55V8.17188C321.944 6.07225 321.11 4.05861 319.626 2.57395C318.141 1.08929 316.127 0.255211 314.028 0.255211H277.083C274.984 0.255211 272.97 1.08929 271.485 2.57395C270.001 4.05861 269.167 6.07225 269.167 8.17188V56.0743L210.102 7.47917C204.433 2.8148 197.321 0.264535 189.98 0.264535C182.64 0.264535 175.527 2.8148 169.859 7.47917L2.86319 145.011C2.06155 145.674 1.39831 146.488 0.911387 147.407C0.424459 148.326 0.123381 149.332 0.0253557 150.367C-0.0726698 151.403 0.0342785 152.447 0.34009 153.441C0.645901 154.435 1.14458 155.36 1.80764 156.161L18.6306 176.612C19.2918 177.416 20.1051 178.082 21.024 178.571C21.9429 179.061 22.9492 179.364 23.9855 179.464C25.0217 179.564 26.0674 179.458 27.0629 179.153C28.0583 178.849 28.9838 178.35 29.7865 177.688L184.966 49.8729C186.396 48.7206 188.177 48.0921 190.013 48.0921C191.849 48.0921 193.63 48.7206 195.06 49.8729L350.247 177.688C351.048 178.351 351.972 178.849 352.966 179.155C353.96 179.461 355.004 179.568 356.04 179.47C357.075 179.372 358.081 179.071 359 178.584C359.919 178.097 360.733 177.434 361.396 176.632L378.219 156.181C378.881 155.375 379.378 154.446 379.68 153.447C379.982 152.449 380.084 151.401 379.98 150.363C379.876 149.325 379.567 148.318 379.073 147.399C378.578 146.481 377.907 145.67 377.097 145.011Z" fill="url(#paint0_linear_2246_39)"/>
<defs>
<linearGradient id="paint0_linear_2246_39" x1="190.005" y1="0.255211" x2="190.005" y2="295.778" gradientUnits="userSpaceOnUse">
<stop stop-color="#FF94AE"/>
<stop offset="1" stop-color="#FF2056"/>
</linearGradient>
</defs>
</svg>
