<svg width="512" height="512" viewBox="0 0 512 512" fill="none" xmlns="http://www.w3.org/2000/svg">
<rect width="512" height="512" rx="102" fill="#FAEAF3"/>
<g clip-path="url(#clip0_2241_35)">
<path d="M250.966 184.922L129.333 285.1V393.222C129.333 396.022 130.445 398.707 132.425 400.686C134.405 402.666 137.089 403.778 139.889 403.778L213.817 403.586C216.608 403.573 219.279 402.454 221.247 400.476C223.215 398.498 224.32 395.821 224.32 393.031V329.889C224.32 327.089 225.432 324.405 227.412 322.425C229.391 320.445 232.076 319.333 234.876 319.333H277.098C279.897 319.333 282.582 320.445 284.562 322.425C286.541 324.405 287.653 327.089 287.653 329.889V392.985C287.649 394.374 287.919 395.75 288.447 397.034C288.976 398.319 289.753 399.486 290.733 400.47C291.714 401.454 292.879 402.234 294.162 402.767C295.445 403.299 296.82 403.573 298.209 403.573L372.111 403.778C374.911 403.778 377.595 402.666 379.575 400.686C381.555 398.707 382.667 396.022 382.667 393.222V285.028L261.06 184.922C259.63 183.769 257.849 183.141 256.013 183.141C254.177 183.141 252.396 183.769 250.966 184.922ZM443.097 253.011L387.944 207.55V116.172C387.944 114.072 387.11 112.059 385.626 110.574C384.141 109.089 382.127 108.255 380.028 108.255H343.083C340.984 108.255 338.97 109.089 337.485 110.574C336.001 112.059 335.167 114.072 335.167 116.172V164.074L276.102 115.479C270.433 110.815 263.321 108.265 255.98 108.265C248.64 108.265 241.527 110.815 235.859 115.479L68.8632 253.011C68.0615 253.674 67.3983 254.488 66.9114 255.407C66.4245 256.326 66.1234 257.332 66.0254 258.367C65.9273 259.403 66.0343 260.447 66.3401 261.441C66.6459 262.435 67.1446 263.36 67.8076 264.161L84.6306 284.612C85.2918 285.416 86.1051 286.082 87.024 286.571C87.9429 287.061 88.9492 287.364 89.9855 287.464C91.0217 287.564 92.0674 287.458 93.0629 287.153C94.0583 286.849 94.9838 286.35 95.7865 285.688L250.966 157.873C252.396 156.721 254.177 156.092 256.013 156.092C257.849 156.092 259.63 156.721 261.06 157.873L416.247 285.688C417.048 286.351 417.972 286.849 418.966 287.155C419.96 287.461 421.004 287.568 422.04 287.47C423.075 287.372 424.081 287.071 425 286.584C425.919 286.097 426.733 285.434 427.396 284.632L444.219 264.181C444.881 263.375 445.378 262.446 445.68 261.447C445.982 260.449 446.084 259.401 445.98 258.363C445.876 257.325 445.567 256.318 445.073 255.399C444.578 254.481 443.907 253.67 443.097 253.011Z" fill="url(#paint0_linear_2241_35)"/>
</g>
<defs>
<linearGradient id="paint0_linear_2241_35" x1="256.005" y1="108.255" x2="256.005" y2="403.778" gradientUnits="userSpaceOnUse">
<stop stop-color="#FFADDA"/>
<stop offset="1" stop-color="#EF78B9"/>
</linearGradient>
<clipPath id="clip0_2241_35">
<rect width="380" height="380" fill="white" transform="translate(66 66)"/>
</clipPath>
</defs>
</svg>
